<svg width="37" height="37" viewBox="0 0 37 37" fill="none" xmlns="http://www.w3.org/2000/svg">
<g clip-path="url(#clip0_1263_4863)">
<path d="M27.0975 31.2441C27.0099 30.998 26.7774 30.8334 26.516 30.8334H25.6637L25.2178 29.941C25.0088 29.5229 24.3231 29.5229 24.114 29.941L23.6681 30.8334H22.8159C22.5489 30.8334 22.312 31.0054 22.2294 31.2595C22.1468 31.5136 22.2375 31.7923 22.4533 31.9489L23.1588 32.4614L22.8689 33.2698C22.7857 33.5023 22.8492 33.7613 23.0299 33.9297C23.1458 34.0376 23.2969 34.0943 23.4492 34.0943C23.5343 34.0943 23.6188 34.077 23.6996 34.0412L24.6894 33.6028L25.6594 34.04C25.8838 34.1411 26.146 34.0986 26.3278 33.9339C26.5092 33.7681 26.5757 33.5109 26.4962 33.2784L26.2236 32.4805L26.9038 31.9291C27.1067 31.7652 27.1845 31.4901 27.0975 31.2441ZM24.888 32.3429C24.8244 32.322 24.7578 32.3108 24.6912 32.3108C24.6277 32.3108 24.5636 32.3207 24.5026 32.3405C24.5272 32.1993 24.5019 32.055 24.4335 31.9328C24.5019 31.8773 24.5599 31.8077 24.6012 31.7256L24.666 31.5955L24.7307 31.7256C24.7837 31.8311 24.8639 31.9162 24.9601 31.9754C24.8991 32.087 24.8732 32.2153 24.888 32.3429Z" fill="black"/>
<path d="M28.3661 27.7499C28.3661 27.4096 28.0898 27.1333 27.7495 27.1333H9.24945C8.90908 27.1333 8.63281 27.4096 8.63281 27.7499C8.63281 28.0903 8.90908 28.3666 9.24945 28.3666H27.7495C28.0898 28.3666 28.3661 28.0903 28.3661 27.7499Z" fill="black"/>
<path d="M30.8336 19.1167V15.4167C30.8336 15.0763 30.5573 14.8 30.217 14.8H24.0502C23.7099 14.8 23.4336 15.0763 23.4336 15.4167V19.1167C23.4336 19.4571 23.7099 19.7333 24.0502 19.7333H30.2169C30.5573 19.7334 30.8336 19.4571 30.8336 19.1167ZM29.6002 18.5H24.6669V16.0334H29.6002V18.5Z" fill="black"/>
<path d="M34.6271 30.8334L36.9186 26.8226C37.0278 26.632 37.0272 26.3971 36.9168 26.2072C36.8064 26.0172 36.6029 25.9 36.3834 25.9H30.2167C29.8764 25.9 29.6001 26.1763 29.6001 26.5167V35.7667H7.40002V26.5167C7.40002 26.1763 7.12375 25.9 6.78338 25.9H0.616663C0.39712 25.9 0.19362 26.0172 0.0832706 26.2072C-0.027079 26.3971 -0.0277294 26.632 0.0813917 26.8226L2.37293 30.8334L0.0813917 34.8442C-0.0277294 35.0348 -0.0271512 35.2697 0.0832706 35.4596C0.19362 35.6495 0.397193 35.7667 0.616663 35.7667H4.31666C4.65703 35.7667 4.93331 35.4905 4.93331 35.1501C4.93331 34.8097 4.65703 34.5335 4.31666 34.5335H1.67918L3.61858 31.1394C3.72712 30.9494 3.72712 30.7175 3.61858 30.5276L1.67918 27.1335H6.16666V36.3835C6.16666 36.7239 6.44293 37.0002 6.78331 37.0002H30.2167C30.557 37.0002 30.8333 36.7239 30.8333 36.3835V27.1335H35.3208L33.3814 30.5276C33.2728 30.7175 33.2728 30.9494 33.3814 31.1394L35.3208 34.5335H32.6833C32.3429 34.5335 32.0667 34.8097 32.0667 35.1501C32.0667 35.4905 32.3429 35.7667 32.6833 35.7667H36.3833C36.6028 35.7667 36.8063 35.6496 36.9167 35.4596C37.027 35.2697 37.0277 35.0347 36.9186 34.8442L34.6271 30.8334Z" fill="black"/>
<path d="M3.69922 3.69997C3.69922 4.38014 4.25234 4.93333 4.93258 4.93333C5.61274 4.93333 6.16593 4.38021 6.16593 3.69997C6.16593 3.01981 5.61281 2.46661 4.93258 2.46661C4.25234 2.46661 3.69922 3.01981 3.69922 3.69997Z" fill="black"/>
<path d="M0.616643 7.4H33.9166C34.257 7.4 34.5333 7.12373 34.5333 6.78336C34.5333 6.44299 34.257 6.16672 33.9166 6.16672H1.23336V3.08336C1.23336 2.0634 2.0634 1.23336 3.08336 1.23336H33.9167C34.9367 1.23336 35.7667 2.0634 35.7667 3.08336V24.05C35.7667 24.3904 36.043 24.6666 36.3834 24.6666C36.7237 24.6666 37 24.3904 37 24.05V3.08336C37 1.38316 35.6168 0 33.9166 0H3.08336C1.38316 0 0 1.38316 0 3.08336V6.78336C0 7.12373 0.276271 7.4 0.616643 7.4Z" fill="black"/>
<path d="M11.0996 3.69997C11.0996 4.38014 11.6527 4.93333 12.333 4.93333C13.0131 4.93333 13.5663 4.38021 13.5663 3.69997C13.5663 3.01981 13.0132 2.46661 12.333 2.46661C11.6527 2.46661 11.0996 3.01981 11.0996 3.69997Z" fill="black"/>
<path d="M7.40039 3.69997C7.40039 4.38014 7.95351 4.93333 8.63375 4.93333C9.31398 4.93333 9.86711 4.38021 9.86711 3.69997C9.86711 3.01981 9.31398 2.46661 8.63375 2.46661C7.95351 2.46661 7.40039 3.01981 7.40039 3.69997Z" fill="black"/>
<path d="M0.616643 24.6666C0.957014 24.6666 1.23329 24.3904 1.23329 24.05V9.25C1.23329 8.90963 0.957014 8.63336 0.616643 8.63336C0.276271 8.63336 0 8.90963 0 9.25V24.05C0 24.3904 0.276271 24.6666 0.616643 24.6666Z" fill="black"/>
<path d="M20.9314 31.2441C20.8438 30.998 20.6113 30.8334 20.3499 30.8334H19.4976L19.0518 29.941C18.8427 29.5229 18.157 29.5229 17.9479 29.941L17.502 30.8334H16.6499C16.3828 30.8334 16.146 31.0054 16.0634 31.2595C15.9808 31.5136 16.0714 31.7923 16.2873 31.9489L16.9928 32.4614L16.7029 33.2698C16.6197 33.5023 16.6832 33.7613 16.8638 33.9297C16.9798 34.0376 17.1309 34.0943 17.2832 34.0943C17.3683 34.0943 17.4528 34.077 17.5336 34.0412L18.5234 33.6028L19.4934 34.04C19.7172 34.1411 19.9799 34.0986 20.1618 33.9339C20.3431 33.7681 20.4097 33.5109 20.3302 33.2784L20.0576 32.4805L20.7378 31.9291C20.9406 31.7652 21.0183 31.4901 20.9314 31.2441ZM18.7219 32.3429C18.6583 32.322 18.5917 32.3108 18.5252 32.3108C18.4616 32.3108 18.3975 32.3207 18.3365 32.3405C18.3611 32.1993 18.3358 32.055 18.2674 31.9328C18.3358 31.8773 18.3938 31.8077 18.4351 31.7256L18.4999 31.5955L18.5646 31.7256C18.6177 31.8311 18.6978 31.9162 18.794 31.9754C18.733 32.087 18.707 32.2153 18.7219 32.3429Z" fill="black"/>
<path d="M27.7493 11.1C28.0897 11.1 28.3659 10.8237 28.3659 10.4833C28.3659 10.143 28.0897 9.8667 27.7493 9.8667H25.2827C24.9423 9.8667 24.666 10.143 24.666 10.4833C24.666 10.8237 24.9423 11.1 25.2827 11.1H27.7493Z" fill="black"/>
<path d="M14.8008 15.4167V19.1167C14.8008 19.4571 15.0771 19.7333 15.4174 19.7333H21.5841C21.9244 19.7333 22.2007 19.4571 22.2007 19.1167V15.4167C22.2007 15.0763 21.9244 14.8 21.5841 14.8H15.4174C15.0771 14.8 14.8008 15.0763 14.8008 15.4167ZM16.0341 16.0334H20.9675V18.5H16.0341V16.0334Z" fill="black"/>
<path d="M22.8177 11.1C23.158 11.1 23.4343 10.8237 23.4343 10.4833C23.4343 10.143 23.158 9.8667 22.8177 9.8667H20.351C20.0106 9.8667 19.7344 10.143 19.7344 10.4833C19.7344 10.8237 20.0106 11.1 20.351 11.1H22.8177Z" fill="black"/>
<path d="M30.2174 21.5833C30.2174 21.2429 29.9412 20.9667 29.6008 20.9667H24.6674C24.3271 20.9667 24.0508 21.2429 24.0508 21.5833C24.0508 21.9237 24.3271 22.2 24.6674 22.2H29.6008C29.9412 22.2 30.2174 21.9237 30.2174 21.5833Z" fill="black"/>
<path d="M16.0327 20.9667C15.6923 20.9667 15.416 21.2429 15.416 21.5833C15.416 21.9237 15.6923 22.2 16.0327 22.2H20.966C21.3064 22.2 21.5827 21.9237 21.5827 21.5833C21.5827 21.2429 21.3064 20.9667 20.966 20.9667H16.0327Z" fill="black"/>
<path d="M6.78266 19.7333H12.9493C13.2897 19.7333 13.5659 19.4571 13.5659 19.1167V15.4167C13.5659 15.0763 13.2897 14.8 12.9493 14.8H6.78266C6.44229 14.8 6.16602 15.0763 6.16602 15.4167V19.1167C6.16594 19.4571 6.44221 19.7333 6.78266 19.7333ZM7.3993 16.0333H12.3327V18.5H7.3993V16.0333Z" fill="black"/>
<path d="M14.7654 31.2441C14.6779 30.998 14.4454 30.8334 14.1839 30.8334H13.3317L12.8858 29.941C12.6767 29.5229 11.991 29.5229 11.782 29.941L11.3361 30.8334H10.4838C10.2168 30.8334 9.98001 31.0054 9.89741 31.2595C9.81481 31.5136 9.90543 31.7923 10.1213 31.9489L10.8267 32.4614L10.5369 33.2698C10.4536 33.5023 10.5172 33.7613 10.6978 33.9297C10.8137 34.0376 10.9648 34.0943 11.1172 34.0943C11.2023 34.0943 11.2868 34.077 11.3676 34.0412L12.3573 33.6028L13.3274 34.04C13.5512 34.1411 13.8133 34.0986 13.9958 33.9339C14.1771 33.7681 14.2437 33.5109 14.1642 33.2784L13.8916 32.4805L14.5718 31.9291C14.7747 31.7652 14.8524 31.4901 14.7654 31.2441ZM12.5559 32.3429C12.4924 32.322 12.4258 32.3108 12.3592 32.3108C12.2957 32.3108 12.2316 32.3207 12.1705 32.3405C12.1952 32.1993 12.1699 32.055 12.1014 31.9328C12.1699 31.8773 12.2278 31.8077 12.2692 31.7256L12.3339 31.5955L12.3987 31.7256C12.4517 31.8311 12.5319 31.9162 12.628 31.9754C12.567 32.087 12.5411 32.2153 12.5559 32.3429Z" fill="black"/>
<path d="M7.39985 22.2H12.3332C12.6736 22.2 12.9498 21.9237 12.9498 21.5833C12.9498 21.2429 12.6736 20.9667 12.3332 20.9667H7.39985C7.05947 20.9667 6.7832 21.2429 6.7832 21.5833C6.7832 21.9237 7.05947 22.2 7.39985 22.2Z" fill="black"/>
<path d="M33.2995 10.4833C33.2995 10.143 33.0233 9.8667 32.6829 9.8667H30.2163C29.8759 9.8667 29.5996 10.143 29.5996 10.4833C29.5996 10.8237 29.8759 11.1 30.2163 11.1H32.6829C33.0233 11.1 33.2995 10.8237 33.2995 10.4833Z" fill="black"/>
<path d="M9.86586 10.4833C9.86586 10.143 9.58959 9.8667 9.24922 9.8667H4.31586C3.97549 9.8667 3.69922 10.143 3.69922 10.4833C3.69922 10.8237 3.97549 11.1 4.31586 11.1H9.24922C9.58959 11.1 9.86586 10.8237 9.86586 10.4833Z" fill="black"/>
</g>
<defs>
<clipPath id="clip0_1263_4863">
<rect width="37" height="37" fill="white"/>
</clipPath>
</defs>
</svg>
