<svg width="45" height="45" viewBox="0 0 45 45" fill="none" xmlns="http://www.w3.org/2000/svg">
<g clip-path="url(#clip0_1263_4906)">
<path d="M8.90625 0C7.53873 0 6.22722 0.543246 5.26023 1.51023C4.29325 2.47722 3.75 3.78873 3.75 5.15625V36.0938C3.75 37.4613 4.29325 38.7728 5.26023 39.7398C6.22722 40.7068 7.53873 41.25 8.90625 41.25H29.5312C29.9042 41.25 30.2619 41.1018 30.5256 40.8381C30.7893 40.5744 30.9375 40.2167 30.9375 39.8438C30.9375 39.4708 30.7893 39.1131 30.5256 38.8494C30.2619 38.5857 29.9042 38.4375 29.5312 38.4375H8.90625C7.6125 38.4375 6.5625 37.3875 6.5625 36.0938V33.75C6.5625 33.0041 6.85882 32.2887 7.38626 31.7613C7.91371 31.2338 8.62908 30.9375 9.375 30.9375H22.9688C23.3417 30.9375 23.6994 30.7893 23.9631 30.5256C24.2268 30.2619 24.375 29.9042 24.375 29.5312C24.375 29.1583 24.2268 28.8006 23.9631 28.5369C23.6994 28.2732 23.3417 28.125 22.9688 28.125H9.375C8.35125 28.125 7.38937 28.3988 6.5625 28.8769V5.15625C6.5625 3.8625 7.6125 2.8125 8.90625 2.8125H34.6875V15.9375C34.6875 16.3105 34.8357 16.6681 35.0994 16.9319C35.3631 17.1956 35.7208 17.3438 36.0938 17.3438C36.4667 17.3438 36.8244 17.1956 37.0881 16.9319C37.3518 16.6681 37.5 16.3105 37.5 15.9375V1.40625C37.5 1.03329 37.3518 0.675604 37.0881 0.411881C36.8244 0.148158 36.4667 0 36.0938 0L8.90625 0Z" fill="black"/>
<path d="M37.4995 26.0682L41.6282 30.4913C41.8838 30.7596 42.235 30.9163 42.6055 30.927C42.976 30.9378 43.3357 30.802 43.6065 30.5489C43.8773 30.2959 44.0373 29.9462 44.0517 29.5759C44.066 29.2055 43.9336 28.8445 43.6832 28.5713L37.1207 21.54C36.9892 21.3992 36.8301 21.287 36.6533 21.2102C36.4766 21.1335 36.2859 21.0939 36.0932 21.0939C35.9005 21.0939 35.7099 21.1335 35.5331 21.2102C35.3564 21.287 35.1973 21.3992 35.0657 21.54L28.5032 28.5713C28.3751 28.7058 28.2748 28.8644 28.2084 29.0379C28.1419 29.2114 28.1104 29.3964 28.1158 29.5821C28.1212 29.7679 28.1634 29.9507 28.2399 30.12C28.3164 30.2894 28.4257 30.4419 28.5614 30.5687C28.6972 30.6956 28.8568 30.7942 29.0309 30.8591C29.205 30.9239 29.3903 30.9535 29.576 30.9464C29.7616 30.9392 29.944 30.8952 30.1126 30.8171C30.2812 30.739 30.4327 30.6283 30.5582 30.4913L34.687 26.0663V43.5938C34.687 43.9667 34.8351 44.3244 35.0988 44.5881C35.3626 44.8519 35.7203 45 36.0932 45C36.4662 45 36.8239 44.8519 37.0876 44.5881C37.3513 44.3244 37.4995 43.9667 37.4995 43.5938V26.0682Z" fill="black"/>
</g>
<defs>
<clipPath id="clip0_1263_4906">
<rect width="45" height="45" fill="white"/>
</clipPath>
</defs>
</svg>
