<svg width="72" height="72" viewBox="0 0 72 72" fill="none" xmlns="http://www.w3.org/2000/svg">
<g clip-path="url(#clip0_1260_5882)">
<path d="M36 0C16.1196 0 0 16.1196 0 36C0 55.8804 16.1196 72 36 72C55.8804 72 72 55.8804 72 36C72 16.1196 55.8804 0 36 0ZM36 65.8929C19.4946 65.8929 6.10714 52.5054 6.10714 36C6.10714 19.4946 19.4946 6.10714 36 6.10714C52.5054 6.10714 65.8929 19.4946 65.8929 36C65.8929 52.5054 52.5054 65.8929 36 65.8929Z" fill="#FFC53D"/>
<path d="M32.1416 50.1429C32.1416 51.1658 32.548 52.1469 33.2713 52.8703C33.9947 53.5936 34.9758 54 35.9987 54C37.0217 54 38.0028 53.5936 38.7262 52.8703C39.4495 52.1469 39.8559 51.1658 39.8559 50.1429C39.8559 49.1199 39.4495 48.1388 38.7262 47.4154C38.0028 46.6921 37.0217 46.2857 35.9987 46.2857C34.9758 46.2857 33.9947 46.6921 33.2713 47.4154C32.548 48.1388 32.1416 49.1199 32.1416 50.1429V50.1429ZM34.0702 41.1429H37.9273C38.2809 41.1429 38.5702 40.8536 38.5702 40.5V18.6429C38.5702 18.2893 38.2809 18 37.9273 18H34.0702C33.7166 18 33.4273 18.2893 33.4273 18.6429V40.5C33.4273 40.8536 33.7166 41.1429 34.0702 41.1429Z" fill="#FFC53D"/>
</g>
<defs>
<clipPath id="clip0_1260_5882">
<rect width="72" height="72" fill="white"/>
</clipPath>
</defs>
</svg>
