<?xml version="1.0" standalone="no"?>
<!DOCTYPE svg PUBLIC "-//W3C//DTD SVG 20010904//EN"
 "http://www.w3.org/TR/2001/REC-SVG-20010904/DTD/svg10.dtd">
<svg version="1.0" xmlns="http://www.w3.org/2000/svg"
 width="1260.000000pt" height="513.000000pt" viewBox="0 0 1260.000000 513.000000"
 preserveAspectRatio="xMidYMid meet">

<g transform="translate(0.000000,513.000000) scale(0.100000,-0.100000)"
fill="#000000" stroke="none">
<path d="M600 4599 c-118 -21 -216 -39 -218 -39 -1 0 -1 -746 0 -1657 l3
-1658 22 -78 c64 -225 178 -346 388 -413 90 -29 243 -54 325 -54 l55 0 29 176
c15 96 30 183 33 192 4 15 -10 21 -89 35 -159 30 -234 81 -275 186 -17 43 -18
142 -21 1699 -2 1560 -3 1652 -20 1651 -9 0 -114 -18 -232 -40z"/>
<path d="M2830 3505 c-277 -44 -539 -173 -746 -369 -209 -197 -344 -432 -412
-720 -23 -100 -26 -130 -25 -296 0 -149 4 -204 21 -283 63 -286 184 -510 386
-713 229 -228 499 -363 811 -405 139 -18 375 -6 505 26 680 168 1137 792 1079
1473 -26 308 -134 571 -329 804 -214 257 -528 433 -862 483 -119 18 -313 18
-428 0z m419 -240 c413 -79 744 -353 888 -736 201 -534 0 -1113 -492 -1416
-274 -168 -647 -209 -965 -106 -232 75 -469 258 -602 463 -129 198 -183 366
-194 605 -24 501 294 969 776 1139 180 64 413 84 589 51z"/>
<path d="M2600 2222 c-44 -21 -74 -79 -65 -122 10 -44 51 -88 93 -99 47 -12
781 -11 836 1 58 12 96 56 96 109 0 53 -31 104 -72 118 -20 7 -171 11 -442 11
-371 0 -414 -2 -446 -18z"/>
<path d="M5680 3329 c-137 -11 -310 -41 -428 -75 -48 -14 -87 -26 -88 -27 -3
-3 46 -350 51 -363 2 -8 28 -4 82 11 152 44 324 67 518 69 149 1 190 -2 240
-17 142 -44 250 -128 306 -239 41 -81 69 -230 69 -365 l0 -105 -32 6 c-207 41
-280 49 -453 49 -522 -2 -869 -177 -998 -503 -78 -199 -56 -508 50 -700 21
-37 70 -98 112 -141 63 -64 93 -85 181 -128 198 -96 479 -135 814 -112 295 21
688 68 748 90 17 6 18 41 18 876 0 956 -1 969 -61 1150 -38 115 -85 193 -168
278 -146 152 -324 224 -606 247 -136 11 -192 11 -355 -1z m620 -1438 c25 -6
64 -16 88 -22 l42 -12 0 -378 c0 -208 -4 -380 -8 -383 -25 -15 -225 -29 -427
-29 -201 0 -240 3 -306 21 -161 43 -263 121 -304 233 -29 79 -29 265 1 330 59
126 197 212 394 244 98 16 445 13 520 -4z"/>
<path d="M8410 3323 c-99 -4 -252 -22 -385 -44 -116 -19 -342 -64 -377 -75
-17 -5 -18 -73 -18 -1239 l0 -1233 225 -1 225 -2 0 1075 0 1074 28 6 c188 39
578 52 693 23 230 -57 343 -195 396 -482 15 -77 18 -204 22 -890 l6 -800 225
0 225 0 0 805 c-1 865 -3 907 -56 1121 -63 254 -217 451 -433 556 -190 93
-408 123 -776 106z"/>
<path d="M11229 3326 c-2 -2 -47 -6 -99 -9 -159 -9 -398 -57 -617 -123 l-83
-25 0 -1218 0 -1218 225 -2 225 -2 0 1069 0 1070 43 10 c268 68 546 69 795 3
53 -14 74 -16 77 -8 9 26 76 379 73 382 -9 8 -287 57 -373 65 -101 10 -258 13
-266 6z"/>
</g>
</svg>
